HIERARCHY
ROOT root
{
	OFFSET	0	13.1	24.9
	CHANNELS 6  Xposition Yposition Zposition Xrotation Yrotation Zrotation
	JOINT spine_1
	{
		OFFSET	0	9.99999	0
		CHANNELS 3  Xrotation Yrotation Zrotation
		JOINT spine_2
		{
			OFFSET	0	112	-10
			CHANNELS 3  Xrotation Yrotation Zrotation
			JOINT spine_3
			{
				OFFSET	0	206.5	19.3
				CHANNELS 3  Xrotation Yrotation Zrotation
				JOINT spine_4
				{
					OFFSET	0	110.4	14.6
					CHANNELS 3  Xrotation Yrotation Zrotation
					JOINT neck_1
					{
						OFFSET	0	71.8	-50.3
						CHANNELS 3  Xrotation Yrotation Zrotation
						JOINT neck_2
						{
							OFFSET	0	86.2	-25.8
							CHANNELS 3  Xrotation Yrotation Zrotation
							JOINT head_ee
							{
								OFFSET	0	179.8	-8.7
								CHANNELS 3  Xrotation Yrotation Zrotation
								End Site
								{
									OFFSET	1	0	0
								}
							}
						}
					}
					JOINT left_clavicle
					{
						OFFSET	-43.2	22.4	-70.8
						CHANNELS 3  Xrotation Yrotation Zrotation
						JOINT left_shoulder
						{
							OFFSET	-93.9	-5.79999	48.7
							CHANNELS 3  Xrotation Yrotation Zrotation
							JOINT left_elbow
							{
								OFFSET	-291.4	-30.8	15.2
								CHANNELS 3  Xrotation Yrotation Zrotation
								JOINT left_lowarm_twist
								{
									OFFSET	-110.7	-3.89999	13.6
									CHANNELS 3  Xrotation Yrotation Zrotation
									JOINT left_hand
									{
										OFFSET	-110.7	-3.89999	13.6
										CHANNELS 3  Xrotation Yrotation Zrotation
										JOINT left_ee
										{
											OFFSET	-80.8	-5.10001	12.1
											CHANNELS 3  Xrotation Yrotation Zrotation
											End Site
											{
												OFFSET	1	0	0
											}
										}
									}
								}
							}
						}
					}
					JOINT right_clavicle
					{
						OFFSET	43.2	22.4	-70.8
						CHANNELS 3  Xrotation Yrotation Zrotation
						JOINT right_shoulder
						{
							OFFSET	93.9	-5.79999	48.7
							CHANNELS 3  Xrotation Yrotation Zrotation
							JOINT right_elbow
							{
								OFFSET	291.4	-30.8	15.2
								CHANNELS 3  Xrotation Yrotation Zrotation
								JOINT right_lowarm_twist
								{
									OFFSET	110.7	-3.89999	13.6
									CHANNELS 3  Xrotation Yrotation Zrotation
									JOINT right_hand
									{
										OFFSET	110.7	-3.89999	13.6
										CHANNELS 3  Xrotation Yrotation Zrotation
										JOINT right_ee
										{
											OFFSET	80.8	-5.10001	12.1
											CHANNELS 3  Xrotation Yrotation Zrotation
											End Site
											{
												OFFSET	1	0	0
											}
										}
									}
								}
							}
						}
					}
				}
			}
		}
	}
	JOINT left_hip
	{
		OFFSET	-82.8	-127.5	0.300001
		CHANNELS 3  Xrotation Yrotation Zrotation
		JOINT left_knee
		{
			OFFSET	-28.2	-396.7	2.2
			CHANNELS 3  Xrotation Yrotation Zrotation
			JOINT left_ankle
			{
				OFFSET	-11.7	-411.3	35.4
				CHANNELS 3  Xrotation Yrotation Zrotation
				JOINT left_toes
				{
					OFFSET	0	-60	-88.6
					CHANNELS 3  Xrotation Yrotation Zrotation
					JOINT left_foot_ee
					{
						OFFSET	-22.5	-16.5	-42.2
						CHANNELS 3  Xrotation Yrotation Zrotation
						End Site
						{
							OFFSET	1	0	0
						}
					}
				}
			}
		}
	}
	JOINT right_hip
	{
		OFFSET	82.8	-127.5	0.300001
		CHANNELS 3  Xrotation Yrotation Zrotation
		JOINT right_knee
		{
			OFFSET	28.2	-396.7	2.2
			CHANNELS 3  Xrotation Yrotation Zrotation
			JOINT right_ankle
			{
				OFFSET	11.7	-411.3	35.4
				CHANNELS 3  Xrotation Yrotation Zrotation
				JOINT right_toes
				{
					OFFSET	0	-60	-88.6
					CHANNELS 3  Xrotation Yrotation Zrotation
					JOINT right_foot_ee
					{
						OFFSET	22.5	-16.5	-42.2
						CHANNELS 3  Xrotation Yrotation Zrotation
						End Site
						{
							OFFSET	1	0	0
						}
					}
				}
			}
		}
	}
}
MOTION
Frames: 12
Frame Time: 0.02
920.85483253 594.845 -1658.9921255 6.98660088398 73.3320325954 -0.825953482058 1.8999 0.0946512 -2.04553 1.9022 0.224595 -2.03537 1.89401 0.583076 -1.96299 1.88873 0.265809 -2.0304 -21.9759 7.14952 6.82908 -22.0217 10.5742 9.55372 -0.0 0.0 -0.0 10.5891 10.7875 19.8663 -1.79584 -2.03478 56.8968 1.85354 -42.5536 0.721854 8.95977 0.228461 -1.12056 6.74394 25.7198 60.54 -0.0 0.0 -0.0 7.45146 -11.4861 -14.1077 -27.3813 13.8584 -58.7639 0.396931 11.1242 -0.0386546 -76.5731 7.38571 -5.31275 -3.44692 -6.43121 20.2556 0.0 0.0 0.0 -1.19198 4.70299 -6.98065 8.06747 -0.415198 -1.16674 14.1391 9.72864 -1.98065 -13.3156 0.0 0.0 -0.0 0.0 -0.0 11.3877 16.9004 -1.80616 -43.1577 0.679781 -6.43458 12.8231 -3.61066 1.80876 -6.72207 0.0 0.0 0.0 0.0 0.0 
923.396972268 597.07 -1660.14975826 3.12487303631 71.6621105337 2.78136190554 1.82134 0.0597202 -1.93207 1.8234 0.182519 -1.92436 1.81714 0.524379 -1.86053 1.81237 0.224019 -1.91997 -22.7852 8.03065 6.31966 -22.9446 12.6063 9.61087 -0.0 0.0 -0.0 10.526 11.2081 19.6939 0.314936 0.21725 55.7057 2.07512 -45.7843 0.87631 10.259 0.246941 -1.28548 6.28011 22.8424 54.7952 -0.0 0.0 -0.0 8.20432 -10.4303 -15.5203 -27.3109 13.7428 -58.1231 0.379545 10.6484 -0.0353712 -76.2874 7.34926 -5.31431 -3.43365 -6.92172 19.893 0.0 0.0 0.0 2.00034 5.82586 -7.08338 6.0945 -0.298499 -0.886872 11.169 10.0232 -1.58222 -12.5749 0.0 0.0 -0.0 0.0 -0.0 15.2363 14.5534 -2.62281 -36.0357 0.234013 -5.43534 11.3142 -2.58861 1.6074 -11.1113 0.0 0.0 0.0 0.0 0.0 
923.921218328 600.033 -1659.30450665 -1.67065453987 71.6489993167 7.39101731544 2.09179 0.0122023 -1.98732 2.09397 0.138611 -1.98252 2.08892 0.482447 -1.92793 2.08377 0.171974 -1.9799 -23.7922 8.34821 5.88102 -24.0328 13.5188 9.51716 -0.0 0.0 -0.0 10.4175 11.6711 19.4326 2.00281 2.28339 56.9852 2.20552 -47.5262 0.971153 8.57539 0.222276 -1.07185 5.94884 21.1511 51.0666 -0.0 0.0 -0.0 8.46534 -9.63675 -16.0525 -28.2317 13.8079 -57.9564 0.404648 11.335 -0.0401574 -76.625 7.39234 -5.31244 -3.55459 -6.24011 21.1166 0.0 0.0 0.0 4.14978 4.55431 -7.32119 5.04047 -0.240136 -0.73579 10.257 8.83278 -1.45685 -12.5493 0.0 0.0 -0.0 0.0 -0.0 17.5159 13.1963 -2.39044 -32.5493 0.0619891 -4.92824 9.23333 -0.942156 1.32573 -14.7558 0.0 0.0 0.0 0.0 0.0 
919.936948379 598.326 -1660.3074369 -4.54411505674 70.2253870343 10.0400479405 2.09518 -0.0552622 -1.9406 2.09727 0.0683113 -1.94018 2.09475 0.405601 -1.89856 2.08973 0.100728 -1.93877 -23.9869 8.64063 5.8523 -24.265 14.1141 9.66991 -0.0 0.0 -0.0 10.0718 12.3364 18.7142 2.8367 2.38658 56.7618 2.33583 -49.1584 1.06852 11.0921 0.256822 -1.39144 5.9122 20.4541 50.5984 -0.0 0.0 -0.0 8.61756 -9.49149 -16.3427 -27.1254 13.4485 -58.005 0.408253 11.4333 -0.040869 -76.1147 7.32721 -5.31516 -3.33894 -7.31499 19.0204 0.0 0.0 0.0 5.62121 5.18717 -7.62134 3.78547 -0.174293 -0.554566 7.958 9.16229 -1.13914 -12.4857 0.0 0.0 -0.0 0.0 -0.0 19.0955 12.0402 -2.47381 -29.7644 -0.0530176 -4.5164 7.02316 -2.24537 1.01334 -16.5163 0.0 0.0 0.0 0.0 0.0 
918.213149091 598.641 -1657.997091 -7.17813326818 69.4523017178 12.6183498302 2.23424 0.0382567 -1.94389 2.23633 0.16185 -1.93752 2.23052 0.492834 -1.88079 2.22564 0.189672 -1.93499 -24.2408 9.16467 6.05608 -24.5729 15.0611 10.1677 -0.0 0.0 -0.0 10.4247 12.5803 19.3245 3.85438 3.24295 55.8725 2.37722 -49.6554 1.09995 11.3941 0.260023 -1.42988 5.93967 19.1903 50.6822 -0.0 0.0 -0.0 8.96496 -8.81345 -17.0389 -26.8116 12.871 -57.8328 0.394558 11.0594 -0.0381983 -75.8434 7.29259 -5.31637 -3.29489 -6.6768 19.0635 0.0 0.0 0.0 6.9065 4.89013 -7.86775 4.21055 -0.196149 -0.616106 7.37151 8.76129 -1.05704 -12.1458 0.0 0.0 -0.0 0.0 -0.0 20.2003 11.2358 -2.53541 -22.5307 -0.257001 -3.42573 2.81462 -1.04909 0.412267 -18.645 0.0 0.0 0.0 0.0 0.0 
909.781854381 597.054 -1655.97790016 -6.62372365439 70.0545286664 11.7246267767 2.14153 -0.0406216 -2.02424 2.14381 0.0882414 -2.02272 2.14042 0.438067 -1.9767 2.13499 0.120453 -2.02106 -23.9744 9.42159 5.67124 -24.3514 15.6982 9.90371 -0.0 0.0 -0.0 10.0307 13.0122 18.5536 2.91652 0.809806 57.1528 2.38551 -49.7537 1.10627 10.9368 0.255097 -1.37168 5.84495 19.6081 49.7899 -0.0 0.0 -0.0 9.34584 -7.82624 -17.8358 -27.3161 11.825 -56.8453 0.402956 11.2888 -0.0398257 -75.1501 7.20405 -5.31871 -3.24625 -7.14839 18.4719 0.0 0.0 0.0 6.92535 4.7201 -7.32987 2.8937 -0.129933 -0.424956 8.65682 8.77792 -1.23621 -12.1538 0.0 0.0 -0.0 0.0 -0.0 21.2348 10.7717 -1.82488 -17.6631 -0.316135 -2.68141 1.20221 -0.264876 0.177186 -19.5685 0.0 0.0 0.0 0.0 0.0 
901.168664719 596.964 -1652.40789895 -5.77745944291 70.3389507537 10.4973157788 2.17192 -0.067582 -1.93372 2.174 0.0555794 -1.93411 2.17188 0.389445 -1.89532 2.16687 0.0852854 -1.93302 -24.1967 9.60312 6.67082 -24.539 15.6384 10.9473 -0.0 0.0 -0.0 9.25323 15.0016 16.9358 2.65687 0.0923996 58.9614 2.47227 -50.7592 1.17298 10.321 0.24773 -1.29337 5.4587 19.4691 46.0563 -0.0 0.0 -0.0 9.48064 -7.7331 -18.0997 -27.1859 11.0839 -56.486 0.406694 11.3908 -0.0405605 -74.6395 7.13882 -5.31974 -3.46665 -6.79775 20.1913 0.0 0.0 0.0 6.92286 5.45451 -6.1189 -0.622907 0.0251473 0.0922841 8.25698 9.74101 -1.1811 -9.84217 0.0 0.0 -0.0 0.0 -0.0 20.6907 10.0313 -1.51953 -13.4317 -0.316056 -2.03234 3.39616 4.49318 0.505168 -21.0323 0.0 0.0 0.0 0.0 0.0 
897.102597253 592.216 -1650.88784179 -7.57415245627 71.7189524577 11.601725577 2.21838 -0.117239 -1.86838 2.22032 0.00186654 -1.87205 2.22003 0.324218 -1.84377 2.21529 0.029013 -1.87182 -24.4748 9.97365 8.12905 -24.7681 15.7637 12.5171 -0.0 0.0 -0.0 8.31788 15.9346 15.244 2.90427 -1.83052 61.1121 2.44432 -50.44 1.15139 8.95288 0.228353 -1.11968 4.60245 21.9971 39.1594 -0.0 0.0 -0.0 9.98189 -6.54123 -19.168 -27.5798 10.4591 -56.141 0.360748 10.1322 -0.031981 -74.0368 7.06179 -5.3202 -3.93095 -8.90518 22.2379 0.0 0.0 0.0 7.34312 6.66994 -5.55051 -1.75968 0.068444 0.261365 14.9162 8.84734 -2.08219 -10.2759 0.0 0.0 -0.0 0.0 -0.0 19.1097 9.61024 -0.735192 -6.86582 -0.221192 -1.02986 3.66488 16.8825 0.586827 -21.58 0.0 0.0 0.0 0.0 0.0 
876.518432271 591.819 -1650.6818417 -16.0435477473 75.3566914438 19.0995024577 2.53265 -0.144113 -1.52478 2.53394 -0.0468074 -1.53086 2.53495 0.20913 -1.51723 2.53174 -0.0330832 -1.53121 -23.3379 11.1639 9.07221 -23.655 17.4936 13.7567 -0.0 0.0 -0.0 6.25374 17.81 11.7432 0.22673 -3.7503 64.9508 2.2911 -48.6098 1.03482 9.89992 0.242208 -1.23986 3.43503 17.5574 29.4726 -0.0 0.0 -0.0 10.9461 -3.92841 -21.3208 -27.8345 9.23645 -56.7524 0.321312 9.04402 -0.0254121 -72.2943 6.83907 -5.31695 -4.58034 -12.1336 24.8095 0.0 0.0 0.0 9.1145 9.12454 -5.43192 -5.50648 0.187233 0.824017 21.4921 9.3409 -2.9164 -9.82969 0.0 0.0 -0.0 0.0 -0.0 16.0806 10.7241 0.05181 2.8523 0.127923 0.418923 3.91929 32.5823 0.750134 -17.4946 0.0 0.0 0.0 0.0 0.0 
865.498992077 590.26 -1651.79330792 -15.8547061877 76.7324019262 18.8089889226 2.52525 -0.240482 -1.60668 2.52668 -0.137771 -1.61872 2.53033 0.134194 -1.61903 2.5267 -0.12315 -1.6199 -21.3848 11.8334 8.78196 -21.7118 18.6159 13.4132 -0.0 0.0 -0.0 5.94796 18.4348 11.2317 -2.33454 -3.80947 65.6489 2.25867 -48.2045 1.01056 9.35643 0.2345 -1.17087 3.21032 16.8791 27.7006 -0.0 0.0 -0.0 10.918 -4.19086 -21.2397 -28.2106 9.29408 -56.6078 0.332332 9.34881 -0.0271733 -72.0119 6.80299 -5.31578 -4.73598 -13.1853 25.2132 0.0 0.0 0.0 8.75163 9.96476 -4.86038 -8.96923 0.264087 1.34977 23.8131 10.4081 -3.19839 -9.43552 0.0 0.0 -0.0 0.0 -0.0 15.6061 12.1304 0.0591274 1.3535 0.0580973 0.199567 1.16273 28.001 0.210708 -16.9126 0.0 0.0 0.0 0.0 0.0 
865.513570344 590.26 -1651.70969686 -15.8863253622 76.7585993095 18.8414734431 2.52525 -0.240482 -1.60668 2.52668 -0.137771 -1.61872 2.53033 0.134194 -1.61903 2.5267 -0.12315 -1.6199 -21.3848 11.8334 8.78196 -21.7118 18.6159 13.4132 -0.0 0.0 -0.0 5.94796 18.4348 11.2317 -2.33454 -3.80947 65.6489 2.25867 -48.2045 1.01056 9.35643 0.2345 -1.17087 3.21032 16.8791 27.7006 -0.0 0.0 -0.0 10.918 -4.19086 -21.2397 -28.2106 9.29408 -56.6078 0.332332 9.34881 -0.0271733 -72.0119 6.80299 -5.31578 -4.73598 -13.1853 25.2132 0.0 0.0 0.0 8.75163 9.96476 -4.86038 -8.96923 0.264087 1.34977 23.8131 10.4081 -3.19839 -9.43552 0.0 0.0 -0.0 0.0 -0.0 15.6061 12.1304 0.0591274 1.3535 0.0580973 0.199567 1.16273 28.001 0.210708 -16.9126 0.0 0.0 0.0 0.0 0.0 
859.698216278 594.343 -1651.12693634 -18.1046576422 77.8300051563 20.7240053176 2.58479 -0.239047 -1.62027 2.58624 -0.135475 -1.63219 2.58983 0.137012 -1.63206 2.58613 -0.122426 -1.63322 -21.8828 11.8551 9.03501 -22.2172 18.6182 13.7576 -0.0 0.0 -0.0 5.90876 18.493 11.168 -4.75432 -4.06794 66.1889 2.24418 -48.0214 0.99978 9.026 0.229493 -1.12895 3.08048 15.8025 26.4929 -0.0 0.0 -0.0 11.035 -3.94363 -21.5001 -28.1078 9.34657 -56.5172 0.338978 9.53237 -0.0282634 -71.7804 6.77341 -5.31468 -4.78756 -13.773 25.1813 0.0 0.0 0.0 8.55213 10.5568 -4.20885 -8.73298 0.259855 1.31376 23.6226 11.3097 -3.17933 -10.0028 0.0 0.0 -0.0 0.0 -0.0 14.9159 13.1612 0.243892 1.3885 0.0596621 0.204709 2.80142 24.8586 0.486181 -14.6898 0.0 0.0 0.0 0.0 0.0 
